<svg width="1328" height="2711" xmlns="http://www.w3.org/2000/svg" xmlns:xlink="http://www.w3.org/1999/xlink" overflow="hidden"><defs><clipPath id="clip0"><rect x="724" y="236" width="1328" height="2711"/></clipPath><linearGradient x1="1538.5" y1="447.5" x2="1538.5" y2="238.5" gradientUnits="userSpaceOnUse" spreadMethod="reflect" id="fill1"><stop offset="0" stop-color="#F0DBB1"/><stop offset="0.5" stop-color="#F5E7CE"/><stop offset="1" stop-color="#F9F3E7"/></linearGradient><linearGradient x1="1538.5" y1="764.5" x2="1538.5" y2="555.5" gradientUnits="userSpaceOnUse" spreadMethod="reflect" id="fill2"><stop offset="0" stop-color="#FFA9FF"/><stop offset="0.5" stop-color="#FFC9FF"/><stop offset="1" stop-color="#FFE4FF"/></linearGradient><linearGradient x1="1547.5" y1="875.5" x2="1547.5" y2="1084.5" gradientUnits="userSpaceOnUse" spreadMethod="reflect" id="fill3"><stop offset="0" stop-color="#FFFFFF"/><stop offset="0.74" stop-color="#FFFF99"/><stop offset="0.83" stop-color="#FFFF99"/><stop offset="1" stop-color="#FFFF99"/></linearGradient><linearGradient x1="1547.5" y1="1201.5" x2="1547.5" y2="1410.5" gradientUnits="userSpaceOnUse" spreadMethod="reflect" id="fill4"><stop offset="0" stop-color="#FFFFFF"/><stop offset="0.74" stop-color="#F4B183"/><stop offset="0.83" stop-color="#F4B183"/><stop offset="1" stop-color="#F4B183"/></linearGradient><linearGradient x1="1547.5" y1="1735.5" x2="1547.5" y2="1526.5" gradientUnits="userSpaceOnUse" spreadMethod="reflect" id="fill5"><stop offset="0" stop-color="#C9ECB4"/><stop offset="0.5" stop-color="#DCF2D0"/><stop offset="1" stop-color="#EDF8E8"/></linearGradient><linearGradient x1="1547.5" y1="2061.5" x2="1547.5" y2="1852.5" gradientUnits="userSpaceOnUse" spreadMethod="reflect" id="fill6"><stop offset="0" stop-color="#97B8FF"/><stop offset="0.5" stop-color="#BFD2FF"/><stop offset="1" stop-color="#DFE8FF"/></linearGradient><linearGradient x1="1547.5" y1="2386.5" x2="1547.5" y2="2177.5" gradientUnits="userSpaceOnUse" spreadMethod="reflect" id="fill7"><stop offset="0" stop-color="#80FFFF"/><stop offset="0.5" stop-color="#B3FFFF"/><stop offset="1" stop-color="#DAFFFF"/></linearGradient><linearGradient x1="1547.5" y1="2716.5" x2="1547.5" y2="2507.5" gradientUnits="userSpaceOnUse" spreadMethod="reflect" id="fill8"><stop offset="0" stop-color="#FF8080"/><stop offset="0.5" stop-color="#FFB3B3"/><stop offset="1" stop-color="#FFDADA"/></linearGradient><linearGradient x1="874" y1="2947" x2="874" y2="238" gradientUnits="userSpaceOnUse" spreadMethod="reflect" id="fill9"><stop offset="0" stop-color="#B8B8B8"/><stop offset="0.5" stop-color="#D3D3D3"/><stop offset="1" stop-color="#E9E9E9"/></linearGradient><linearGradient x1="873.5" y1="365" x2="873.5" y2="307" gradientUnits="userSpaceOnUse" spreadMethod="reflect" id="fill10"><stop offset="0" stop-color="#F0DBB1"/><stop offset="0.5" stop-color="#F5E7CE"/><stop offset="1" stop-color="#F9F3E7"/></linearGradient><linearGradient x1="873.5" y1="677" x2="873.5" y2="619" gradientUnits="userSpaceOnUse" spreadMethod="reflect" id="fill11"><stop offset="0" stop-color="#FFA9FF"/><stop offset="0.5" stop-color="#FFC9FF"/><stop offset="1" stop-color="#FFE4FF"/></linearGradient><linearGradient x1="873.5" y1="949" x2="873.5" y2="1007" gradientUnits="userSpaceOnUse" spreadMethod="reflect" id="fill12"><stop offset="0" stop-color="#FFFFFF"/><stop offset="0.74" stop-color="#FFFF99"/><stop offset="0.83" stop-color="#FFFF99"/><stop offset="1" stop-color="#FFFF99"/></linearGradient><linearGradient x1="873.5" y1="1332" x2="873.5" y2="1274" gradientUnits="userSpaceOnUse" spreadMethod="reflect" id="fill13"><stop offset="0" stop-color="#FFCAA7"/><stop offset="0.5" stop-color="#FFDDC8"/><stop offset="1" stop-color="#FFEEE4"/></linearGradient><linearGradient x1="873.5" y1="1648" x2="873.5" y2="1590" gradientUnits="userSpaceOnUse" spreadMethod="reflect" id="fill14"><stop offset="0" stop-color="#C9ECB4"/><stop offset="0.5" stop-color="#DCF2D0"/><stop offset="1" stop-color="#EDF8E8"/></linearGradient><linearGradient x1="873.5" y1="1983" x2="873.5" y2="1925" gradientUnits="userSpaceOnUse" spreadMethod="reflect" id="fill15"><stop offset="0" stop-color="#97B8FF"/><stop offset="0.5" stop-color="#BFD2FF"/><stop offset="1" stop-color="#DFE8FF"/></linearGradient><linearGradient x1="873.5" y1="2304" x2="873.5" y2="2246" gradientUnits="userSpaceOnUse" spreadMethod="reflect" id="fill16"><stop offset="0" stop-color="#80FFFF"/><stop offset="0.5" stop-color="#B3FFFF"/><stop offset="1" stop-color="#DAFFFF"/></linearGradient><linearGradient x1="873.5" y1="2634" x2="873.5" y2="2576" gradientUnits="userSpaceOnUse" spreadMethod="reflect" id="fill17"><stop offset="0" stop-color="#FF8080"/><stop offset="0.5" stop-color="#FFB3B3"/><stop offset="1" stop-color="#FFDADA"/></linearGradient></defs><g clip-path="url(#clip0)" transform="translate(-724 -236)"><path d="M1036.5 273.334C1036.5 254.096 1052.1 238.5 1071.33 238.5L2005.67 238.5C2024.9 238.5 2040.5 254.096 2040.5 273.334L2040.5 412.666C2040.5 431.904 2024.9 447.5 2005.67 447.5L1071.33 447.5C1052.1 447.5 1036.5 431.904 1036.5 412.666Z" stroke="#000000" stroke-width="4.58333" stroke-miterlimit="8" fill="url(#fill1)" fill-rule="evenodd"/><text fill="#0D0D0D" font-family="Calibri,Calibri_MSFontService,sans-serif" font-weight="400" font-size="50" transform="matrix(1 0 0 1 1266.1 360)">Membaca Beberapa Paper</text><path d="M1036.5 590.334C1036.5 571.096 1052.1 555.5 1071.33 555.5L2005.67 555.5C2024.9 555.5 2040.5 571.096 2040.5 590.334L2040.5 729.666C2040.5 748.904 2024.9 764.5 2005.67 764.5L1071.33 764.5C1052.1 764.5 1036.5 748.904 1036.5 729.666Z" stroke="#000000" stroke-width="4.58333" stroke-miterlimit="8" fill="url(#fill2)" fill-rule="evenodd"/><text fill="#0D0D0D" font-family="Calibri,Calibri_MSFontService,sans-serif" font-weight="400" font-size="50" transform="matrix(1 0 0 1 1347.41 677)">Merangkum Paper</text><path d="M1045.5 910.334C1045.5 891.096 1061.1 875.5 1080.33 875.5L2014.67 875.5C2033.9 875.5 2049.5 891.096 2049.5 910.334L2049.5 1049.67C2049.5 1068.9 2033.9 1084.5 2014.67 1084.5L1080.33 1084.5C1061.1 1084.5 1045.5 1068.9 1045.5 1049.67Z" stroke="#000000" stroke-width="4.58333" stroke-miterlimit="8" fill="url(#fill3)" fill-rule="evenodd"/><text fill="#0D0D0D" font-family="Calibri,Calibri_MSFontService,sans-serif" font-weight="400" font-size="50" transform="matrix(1 0 0 1 1149.52 965)">Memilih Topik Paper yang Akan Dibuat <tspan font-size="50" x="258.111" y="66">Prototypenya</tspan></text><path d="M1045.5 1236.33C1045.5 1217.1 1061.1 1201.5 1080.33 1201.5L2014.67 1201.5C2033.9 1201.5 2049.5 1217.1 2049.5 1236.33L2049.5 1375.67C2049.5 1394.9 2033.9 1410.5 2014.67 1410.5L1080.33 1410.5C1061.1 1410.5 1045.5 1394.9 1045.5 1375.67Z" stroke="#000000" stroke-width="4.58333" stroke-miterlimit="8" fill="url(#fill4)" fill-rule="evenodd"/><text fill="#0D0D0D" font-family="Calibri,Calibri_MSFontService,sans-serif" font-weight="400" font-size="50" transform="matrix(1 0 0 1 1152.22 1323)">Membuat Desain/Algoritma Prototype</text><path d="M1045.5 1561.33C1045.5 1542.1 1061.1 1526.5 1080.33 1526.5L2014.67 1526.5C2033.9 1526.5 2049.5 1542.1 2049.5 1561.33L2049.5 1700.67C2049.5 1719.9 2033.9 1735.5 2014.67 1735.5L1080.33 1735.5C1061.1 1735.5 1045.5 1719.9 1045.5 1700.67Z" stroke="#000000" stroke-width="4.58333" stroke-miterlimit="8" fill="url(#fill5)" fill-rule="evenodd"/><text fill="#0D0D0D" font-family="Calibri,Calibri_MSFontService,sans-serif" font-weight="400" font-size="50" transform="matrix(1 0 0 1 1170.55 1648)">Membuat Prototype dalam Bahasa C</text><path d="M1045.5 1887.33C1045.5 1868.1 1061.1 1852.5 1080.33 1852.5L2014.67 1852.5C2033.9 1852.5 2049.5 1868.1 2049.5 1887.33L2049.5 2026.67C2049.5 2045.9 2033.9 2061.5 2014.67 2061.5L1080.33 2061.5C1061.1 2061.5 1045.5 2045.9 1045.5 2026.67Z" stroke="#000000" stroke-width="4.58333" stroke-miterlimit="8" fill="url(#fill6)" fill-rule="evenodd"/><text fill="#0D0D0D" font-family="Calibri,Calibri_MSFontService,sans-serif" font-weight="400" font-size="50" transform="matrix(1 0 0 1 1260.49 1974)">Melakukan Revisi Prototype</text><path d="M1045.5 2212.33C1045.5 2193.1 1061.1 2177.5 1080.33 2177.5L2014.67 2177.5C2033.9 2177.5 2049.5 2193.1 2049.5 2212.33L2049.5 2351.67C2049.5 2370.9 2033.9 2386.5 2014.67 2386.5L1080.33 2386.5C1061.1 2386.5 1045.5 2370.9 1045.5 2351.67Z" stroke="#000000" stroke-width="4.58333" stroke-miterlimit="8" fill="url(#fill7)" fill-rule="evenodd"/><text fill="#0D0D0D" font-family="Calibri,Calibri_MSFontService,sans-serif" font-weight="400" font-size="50" transform="matrix(1 0 0 1 1346.85 2299)">Finalisasi Prototype</text><path d="M1045.5 2542.33C1045.5 2523.1 1061.1 2507.5 1080.33 2507.5L2014.67 2507.5C2033.9 2507.5 2049.5 2523.1 2049.5 2542.33L2049.5 2681.67C2049.5 2700.9 2033.9 2716.5 2014.67 2716.5L1080.33 2716.5C1061.1 2716.5 1045.5 2700.9 1045.5 2681.67Z" stroke="#000000" stroke-width="4.58333" stroke-miterlimit="8" fill="url(#fill8)" fill-rule="evenodd"/><text fill="#0D0D0D" font-family="Calibri,Calibri_MSFontService,sans-serif" font-weight="400" font-size="50" transform="matrix(1 0 0 1 1332.71 2629)">Penyusunan Laporan</text><path d="M724 2797 799.001 2797 799.001 238 949.002 238 949.002 2797 1024 2797 874 2947Z" fill="url(#fill9)" fill-rule="evenodd"/><rect x="802" y="307" width="143" height="58.0001" fill="url(#fill10)"/><rect x="802" y="619" width="143" height="57.9998" fill="url(#fill11)"/><rect x="802" y="949" width="143" height="57.9998" fill="url(#fill12)"/><rect x="802" y="1274" width="143" height="58.0001" fill="url(#fill13)"/><rect x="802" y="1590" width="143" height="58.0001" fill="url(#fill14)"/><rect x="802" y="1925" width="143" height="58.0001" fill="url(#fill15)"/><rect x="802" y="2246" width="143" height="58" fill="url(#fill16)"/><rect x="802" y="2576" width="143" height="58" fill="url(#fill17)"/></g></svg>